name C:/MyDriveSym/Projects/mobilecap/Data\Session20210823_0001\mocap\ForceDataProcessed\static1_forces.mot
datacolumns 28
datarows 20
range 1.32450000 1.33400000
endheader 
time	R_ground_force_vx	R_ground_force_vy	R_ground_force_vz	R_ground_force_px	R_ground_force_py	R_ground_force_pz	R_ground_torque_x	R_ground_torque_y	R_ground_torque_z	L_ground_force_vx	L_ground_force_vy	L_ground_force_vz	L_ground_force_px	L_ground_force_py	L_ground_force_pz	L_ground_torque_x	L_ground_torque_y	L_ground_torque_z	3_ground_force_vx	3_ground_force_vy	3_ground_force_vz	3_ground_force_px	3_ground_force_py	3_ground_force_pz	3_ground_torque_x	3_ground_torque_y	3_ground_torque_z	
          1.32450000	          2.33422600	        282.64327900	        -25.00674200	         -0.23272100	          0.00600000	         -0.39438100	          0.00000000	         -0.80732700	          0.00000000	         -3.37217800	        330.16018200	         26.22059300	         -0.20257000	          0.00600000	         -0.71806000	          0.00000000	          1.43005100	          0.00000000	          0.00000000	          0.00000000	          0.00000000	          0.00000000	          0.00000000	          0.00000000	          0.00000000	          0.00000000	          0.00000000	
          1.32500000	          2.32796400	        282.64730200	        -25.00481000	         -0.23272600	          0.00600000	         -0.39438300	          0.00000000	         -0.80780700	          0.00000000	         -3.37269300	        330.15192000	         26.22045600	         -0.20256200	          0.00600000	         -0.71805800	          0.00000000	          1.42874500	          0.00000000	          0.00000000	          0.00000000	          0.00000000	          0.00000000	          0.00000000	          0.00000000	          0.00000000	          0.00000000	          0.00000000	
          1.32550000	          2.32161400	        282.65242000	        -25.00317400	         -0.23273100	          0.00600000	         -0.39438400	          0.00000000	         -0.80823200	          0.00000000	         -3.37317800	        330.14310900	         26.22060300	         -0.20255400	          0.00600000	         -0.71805500	          0.00000000	          1.42750600	          0.00000000	          0.00000000	          0.00000000	          0.00000000	          0.00000000	          0.00000000	          0.00000000	          0.00000000	          0.00000000	          0.00000000	
          1.32600000	          2.31521800	        282.65855800	        -25.00182500	         -0.23273600	          0.00600000	         -0.39438600	          0.00000000	         -0.80860600	          0.00000000	         -3.37364700	        330.13384700	         26.22099500	         -0.20254600	          0.00600000	         -0.71805100	          0.00000000	          1.42632400	          0.00000000	          0.00000000	          0.00000000	          0.00000000	          0.00000000	          0.00000000	          0.00000000	          0.00000000	          0.00000000	          0.00000000	
          1.32650000	          2.30883000	        282.66564100	        -25.00075700	         -0.23274100	          0.00600000	         -0.39438700	          0.00000000	         -0.80893500	          0.00000000	         -3.37409500	        330.12422300	         26.22160000	         -0.20253800	          0.00600000	         -0.71804700	          0.00000000	          1.42519600	          0.00000000	          0.00000000	          0.00000000	          0.00000000	          0.00000000	          0.00000000	          0.00000000	          0.00000000	          0.00000000	          0.00000000	
          1.32700000	          2.30250600	        282.67360200	        -24.99996700	         -0.23274500	          0.00600000	         -0.39438800	          0.00000000	         -0.80922300	          0.00000000	         -3.37451100	        330.11433500	         26.22238300	         -0.20253100	          0.00600000	         -0.71804200	          0.00000000	          1.42412000	          0.00000000	          0.00000000	          0.00000000	          0.00000000	          0.00000000	          0.00000000	          0.00000000	          0.00000000	          0.00000000	          0.00000000	
          1.32750000	          2.29630400	        282.68239800	        -24.99944400	         -0.23275000	          0.00600000	         -0.39438900	          0.00000000	         -0.80947100	          0.00000000	         -3.37488200	        330.10428600	         26.22331400	         -0.20252400	          0.00600000	         -0.71803600	          0.00000000	          1.42310200	          0.00000000	          0.00000000	          0.00000000	          0.00000000	          0.00000000	          0.00000000	          0.00000000	          0.00000000	          0.00000000	          0.00000000	
          1.32800000	          2.29026900	        282.69201000	        -24.99917000	         -0.23275500	          0.00600000	         -0.39438900	          0.00000000	         -0.80967700	          0.00000000	         -3.37519600	        330.09418500	         26.22437200	         -0.20251700	          0.00600000	         -0.71803000	          0.00000000	          1.42215100	          0.00000000	          0.00000000	          0.00000000	          0.00000000	          0.00000000	          0.00000000	          0.00000000	          0.00000000	          0.00000000	          0.00000000	
          1.32850000	          2.28443900	        282.70242400	        -24.99911900	         -0.23276000	          0.00600000	         -0.39438900	          0.00000000	         -0.80983300	          0.00000000	         -3.37543400	        330.08413600	         26.22555000	         -0.20251100	          0.00600000	         -0.71802400	          0.00000000	          1.42128100	          0.00000000	          0.00000000	          0.00000000	          0.00000000	          0.00000000	          0.00000000	          0.00000000	          0.00000000	          0.00000000	          0.00000000	
          1.32900000	          2.27884200	        282.71363300	        -24.99927200	         -0.23276400	          0.00600000	         -0.39438900	          0.00000000	         -0.80993300	          0.00000000	         -3.37557300	        330.07423700	         26.22685200	         -0.20250600	          0.00600000	         -0.71801700	          0.00000000	          1.42051000	          0.00000000	          0.00000000	          0.00000000	          0.00000000	          0.00000000	          0.00000000	          0.00000000	          0.00000000	          0.00000000	          0.00000000	
          1.32950000	          2.27350100	        282.72565600	        -24.99961300	         -0.23276900	          0.00600000	         -0.39438800	          0.00000000	         -0.80997300	          0.00000000	         -3.37559300	        330.06457800	         26.22828100	         -0.20250100	          0.00600000	         -0.71801000	          0.00000000	          1.41985600	          0.00000000	          0.00000000	          0.00000000	          0.00000000	          0.00000000	          0.00000000	          0.00000000	          0.00000000	          0.00000000	          0.00000000	
          1.33000000	          2.26844600	        282.73853400	        -25.00014500	         -0.23277300	          0.00600000	         -0.39438600	          0.00000000	         -0.80994900	          0.00000000	         -3.37547900	        330.05522400	         26.22984900	         -0.20249700	          0.00600000	         -0.71800400	          0.00000000	          1.41933100	          0.00000000	          0.00000000	          0.00000000	          0.00000000	          0.00000000	          0.00000000	          0.00000000	          0.00000000	          0.00000000	          0.00000000	
          1.33050000	          2.26371200	        282.75230500	        -25.00088100	         -0.23277700	          0.00600000	         -0.39438400	          0.00000000	         -0.80986200	          0.00000000	         -3.37521400	        330.04619800	         26.23156800	         -0.20249300	          0.00600000	         -0.71799700	          0.00000000	          1.41894500	          0.00000000	          0.00000000	          0.00000000	          0.00000000	          0.00000000	          0.00000000	          0.00000000	          0.00000000	          0.00000000	          0.00000000	
          1.33100000	          2.25934400	        282.76696700	        -25.00184900	         -0.23278100	          0.00600000	         -0.39438100	          0.00000000	         -0.80970900	          0.00000000	         -3.37478700	        330.03747400	         26.23344300	         -0.20249100	          0.00600000	         -0.71799000	          0.00000000	          1.41870000	          0.00000000	          0.00000000	          0.00000000	          0.00000000	          0.00000000	          0.00000000	          0.00000000	          0.00000000	          0.00000000	          0.00000000	
          1.33150000	          2.25539400	        282.78246400	        -25.00308200	         -0.23278400	          0.00600000	         -0.39437800	          0.00000000	         -0.80948700	          0.00000000	         -3.37418900	        330.02899700	         26.23546400	         -0.20248900	          0.00600000	         -0.71798300	          0.00000000	          1.41859600	          0.00000000	          0.00000000	          0.00000000	          0.00000000	          0.00000000	          0.00000000	          0.00000000	          0.00000000	          0.00000000	          0.00000000	
          1.33200000	          2.25190600	        282.79870000	        -25.00460600	         -0.23278700	          0.00600000	         -0.39437400	          0.00000000	         -0.80919300	          0.00000000	         -3.37341900	        330.02069100	         26.23761200	         -0.20248700	          0.00600000	         -0.71797600	          0.00000000	          1.41862800	          0.00000000	          0.00000000	          0.00000000	          0.00000000	          0.00000000	          0.00000000	          0.00000000	          0.00000000	          0.00000000	          0.00000000	
          1.33250000	          2.24890100	        282.81556800	        -25.00643300	         -0.23278900	          0.00600000	         -0.39436900	          0.00000000	         -0.80882500	          0.00000000	         -3.37247200	        330.01247000	         26.23986600	         -0.20248700	          0.00600000	         -0.71796900	          0.00000000	          1.41878900	          0.00000000	          0.00000000	          0.00000000	          0.00000000	          0.00000000	          0.00000000	          0.00000000	          0.00000000	          0.00000000	          0.00000000	
          1.33300000	          2.24636900	        282.83296500	        -25.00855600	         -0.23279100	          0.00600000	         -0.39436400	          0.00000000	         -0.80838300	          0.00000000	         -3.37133700	        330.00424000	         26.24220600	         -0.20248700	          0.00600000	         -0.71796300	          0.00000000	          1.41907200	          0.00000000	          0.00000000	          0.00000000	          0.00000000	          0.00000000	          0.00000000	          0.00000000	          0.00000000	          0.00000000	          0.00000000	
          1.33350000	          2.24428200	        282.85078300	        -25.01094400	         -0.23279100	          0.00600000	         -0.39435900	          0.00000000	         -0.80787200	          0.00000000	         -3.37000800	        329.99592600	         26.24460700	         -0.20248800	          0.00600000	         -0.71795600	          0.00000000	          1.41947300	          0.00000000	          0.00000000	          0.00000000	          0.00000000	          0.00000000	          0.00000000	          0.00000000	          0.00000000	          0.00000000	          0.00000000	
          1.33400000	          2.24260300	        282.86888900	        -25.01355100	         -0.23279200	          0.00600000	         -0.39435300	          0.00000000	         -0.80730300	          0.00000000	         -3.36848300	        329.98749900	         26.24704300	         -0.20249000	          0.00600000	         -0.71794900	          0.00000000	          1.41998500	          0.00000000	          0.00000000	          0.00000000	          0.00000000	          0.00000000	          0.00000000	          0.00000000	          0.00000000	          0.00000000	          0.00000000	
